<svg xmlns="http://www.w3.org/2000/svg" xmlns:xlink="http://www.w3.org/1999/xlink" width="500" zoomAndPan="magnify" viewBox="0 0 375 374.999991" height="500" preserveAspectRatio="xMidYMid meet" version="1.0"><defs><clipPath id="430de21171"><path d="M 106.589844 106.589844 L 268.410156 106.589844 L 268.410156 268.410156 L 106.589844 268.410156 Z M 106.589844 106.589844 " clip-rule="nonzero"/></clipPath><clipPath id="36475e8957"><path d="M 187.5 106.589844 C 142.816406 106.589844 106.589844 142.816406 106.589844 187.5 C 106.589844 232.183594 142.816406 268.410156 187.5 268.410156 C 232.183594 268.410156 268.410156 232.183594 268.410156 187.5 C 268.410156 142.816406 232.183594 106.589844 187.5 106.589844 Z M 187.5 106.589844 " clip-rule="nonzero"/></clipPath><clipPath id="e48d087cb4"><path d="M 152.785156 152 L 182 152 L 182 189 L 152.785156 189 Z M 152.785156 152 " clip-rule="nonzero"/></clipPath><clipPath id="e78e70d9a9"><path d="M 174 154 L 222.535156 154 L 222.535156 241 L 174 241 Z M 174 154 " clip-rule="nonzero"/></clipPath><clipPath id="c8ad0181fa"><path d="M 186 133.046875 L 207 133.046875 L 207 154 L 186 154 Z M 186 133.046875 " clip-rule="nonzero"/></clipPath></defs><g clip-path="url(#430de21171)"><g clip-path="url(#36475e8957)"><path fill="#ff5757" d="M 106.589844 106.589844 L 268.410156 106.589844 L 268.410156 268.410156 L 106.589844 268.410156 Z M 106.589844 106.589844 " fill-opacity="1" fill-rule="nonzero"/></g></g><g clip-path="url(#e48d087cb4)"><path fill="#231f20" d="M 152.78125 178.5625 C 153.121094 177.441406 153.335938 176.261719 153.832031 175.21875 C 155.054688 172.652344 156.398438 170.144531 157.714844 167.628906 C 158.152344 166.789062 158.875 166.363281 159.839844 166.492188 C 160.820312 166.625 161.359375 166.167969 161.820312 165.351562 C 163.761719 161.910156 165.738281 158.496094 167.738281 155.09375 C 168.082031 154.503906 168.550781 153.96875 169.03125 153.476562 C 170.136719 152.347656 171.539062 152.269531 172.972656 152.574219 C 174.703125 152.941406 176.4375 153.328125 178.128906 153.847656 C 180.867188 154.691406 181.570312 155.996094 180.742188 158.730469 C 179.152344 163.972656 177.5 169.195312 175.875 174.425781 C 174.894531 177.582031 173.957031 180.75 172.917969 183.882812 C 171.867188 187.054688 170.128906 188.320312 166.875 188.25 C 165.613281 188.222656 164.332031 187.75 163.117188 187.316406 C 161.003906 186.566406 158.910156 185.75 156.863281 184.847656 C 155.316406 184.164062 154 183.136719 153.332031 181.503906 C 153.09375 180.933594 152.960938 180.316406 152.78125 179.722656 C 152.78125 179.335938 152.78125 178.949219 152.78125 178.5625 " fill-opacity="1" fill-rule="nonzero"/></g><path fill="#231f20" d="M 174.382812 190.527344 C 175.386719 193.941406 177.503906 196.539062 179.648438 199.109375 C 180.925781 200.636719 182.28125 202.101562 183.582031 203.613281 C 183.761719 203.816406 183.960938 204.164062 183.90625 204.382812 C 183.292969 206.890625 182.769531 209.4375 181.921875 211.871094 C 181.382812 213.4375 180.492188 214.9375 179.503906 216.28125 C 175.453125 221.796875 172.046875 227.714844 168.4375 233.507812 C 167.710938 234.667969 166.796875 235.636719 165.578125 236.34375 C 162.53125 238.117188 158.679688 235.96875 158.347656 232.316406 C 158.207031 230.789062 158.726562 229.410156 159.492188 228.15625 C 162.40625 223.363281 165.332031 218.582031 168.324219 213.839844 C 169.832031 211.457031 170.605469 208.839844 171.167969 206.132812 C 171.878906 202.710938 172.558594 199.285156 173.257812 195.863281 C 173.613281 194.125 173.992188 192.382812 174.382812 190.527344 " fill-opacity="1" fill-rule="nonzero"/><g clip-path="url(#e78e70d9a9)"><path fill="#231f20" d="M 222.011719 176.550781 C 221.566406 175.203125 220.539062 174.527344 219.136719 174.246094 C 216.800781 173.785156 214.492188 174.167969 212.1875 174.34375 C 208.84375 174.601562 205.964844 173.792969 204.054688 170.929688 C 202.277344 168.269531 200.71875 165.464844 199.058594 162.726562 C 197.945312 160.882812 196.902344 158.992188 195.679688 157.21875 C 194.308594 155.230469 192.226562 154.28125 189.863281 154.421875 C 185.984375 154.648438 183.691406 156.210938 182.546875 159.933594 C 181.046875 164.804688 179.625 169.691406 178.195312 174.582031 C 177.203125 177.988281 176.160156 181.386719 175.320312 184.835938 C 174.515625 188.121094 174.949219 191.265625 176.90625 194.160156 C 179.257812 197.632812 181.996094 200.789062 184.890625 203.804688 C 186.617188 205.601562 188.464844 207.289062 190.265625 209.015625 C 192.578125 211.226562 193.6875 213.925781 193.554688 217.113281 C 193.472656 219.125 193.421875 221.140625 193.238281 223.144531 C 192.984375 225.996094 192.585938 228.835938 192.3125 231.683594 C 192.105469 233.847656 192.195312 235.984375 193.289062 237.964844 C 194.832031 240.757812 198.386719 241.757812 200.925781 240.050781 C 202.726562 238.839844 203.550781 236.976562 203.8125 234.929688 C 204.101562 232.664062 204.226562 230.371094 204.316406 228.089844 C 204.527344 222.710938 204.621094 217.324219 204.871094 211.949219 C 204.984375 209.464844 204.234375 207.34375 202.761719 205.410156 C 199.230469 200.761719 195.703125 196.113281 192.15625 191.476562 C 191.4375 190.539062 191.152344 189.589844 191.476562 188.398438 C 192.664062 184.015625 193.777344 179.613281 194.9375 175.222656 C 195.085938 174.652344 195.054688 174.238281 194.640625 173.742188 C 192.976562 171.746094 191.371094 169.695312 189.769531 167.648438 C 189.734375 167.601562 189.710938 167.550781 189.695312 167.492188 C 189.691406 167.480469 189.546875 166.9375 190.144531 167.023438 C 190.226562 167.054688 190.300781 167.09375 190.347656 167.152344 C 193.644531 171.246094 196.960938 175.332031 200.183594 179.480469 C 201.574219 181.273438 203.21875 182.289062 205.558594 182.175781 C 207.390625 182.085938 209.230469 182.160156 211.066406 182.160156 C 211.066406 182.160156 211.066406 182.164062 211.066406 182.167969 C 213.15625 182.167969 215.242188 182.226562 217.324219 182.148438 C 218.726562 182.09375 220.097656 181.765625 221.074219 180.628906 C 222.09375 179.445312 222.511719 178.066406 222.011719 176.550781 " fill-opacity="1" fill-rule="nonzero"/></g><g clip-path="url(#c8ad0181fa)"><path fill="#231f20" d="M 206.941406 143.261719 C 206.941406 148.894531 202.476562 153.460938 196.964844 153.460938 C 191.457031 153.460938 186.992188 148.894531 186.992188 143.261719 C 186.992188 137.628906 191.457031 133.0625 196.964844 133.0625 C 202.476562 133.0625 206.941406 137.628906 206.941406 143.261719 " fill-opacity="1" fill-rule="nonzero"/></g><path fill="#231f20" d="M 219.835938 172.554688 L 221.007812 163.824219 C 221.097656 163.167969 220.632812 162.5625 219.96875 162.472656 L 219.867188 162.460938 C 219.207031 162.371094 218.597656 162.835938 218.507812 163.492188 L 217.292969 172.554688 L 219.835938 172.554688 " fill-opacity="1" fill-rule="nonzero"/><path fill="#231f20" d="M 215.851562 183.285156 L 208.296875 239.515625 C 208.210938 240.175781 208.675781 240.78125 209.339844 240.867188 L 209.441406 240.882812 C 210.101562 240.96875 210.710938 240.507812 210.800781 239.847656 L 218.394531 183.285156 L 215.851562 183.285156 " fill-opacity="1" fill-rule="nonzero"/></svg>