<svg xmlns="http://www.w3.org/2000/svg" xmlns:xlink="http://www.w3.org/1999/xlink" width="500" zoomAndPan="magnify" viewBox="0 0 375 374.999991" height="500" preserveAspectRatio="xMidYMid meet" version="1.0"><defs><clipPath id="c8168d14a4"><path d="M 106.589844 106.589844 L 268.410156 106.589844 L 268.410156 268.410156 L 106.589844 268.410156 Z M 106.589844 106.589844 " clip-rule="nonzero"/></clipPath><clipPath id="4ed3c3b873"><path d="M 187.5 106.589844 C 142.816406 106.589844 106.589844 142.816406 106.589844 187.5 C 106.589844 232.183594 142.816406 268.410156 187.5 268.410156 C 232.183594 268.410156 268.410156 232.183594 268.410156 187.5 C 268.410156 142.816406 232.183594 106.589844 187.5 106.589844 Z M 187.5 106.589844 " clip-rule="nonzero"/></clipPath><clipPath id="b71deb506c"><path d="M 159 139.097656 L 175 139.097656 L 175 162 L 159 162 Z M 159 139.097656 " clip-rule="nonzero"/></clipPath><clipPath id="fc6fba0dfa"><path d="M 135.9375 213.226562 L 238.6875 213.226562 L 238.6875 235.820312 L 135.9375 235.820312 Z M 135.9375 213.226562 " clip-rule="nonzero"/></clipPath></defs><g clip-path="url(#c8168d14a4)"><g clip-path="url(#4ed3c3b873)"><path fill="#3ca5b7" d="M 106.589844 106.589844 L 268.410156 106.589844 L 268.410156 268.410156 L 106.589844 268.410156 Z M 106.589844 106.589844 " fill-opacity="1" fill-rule="nonzero"/></g></g><path fill="#000000" d="M 172.855469 160.136719 C 168.789062 163.234375 164.347656 167.34375 160.289062 172.742188 C 145.796875 192.027344 146.398438 214.132812 147.054688 222.367188 C 151.289062 222.367188 155.523438 222.367188 159.757812 222.367188 C 158.359375 217.058594 157.21875 210.28125 157.449219 202.449219 C 158.0625 181.644531 167.957031 166.605469 172.855469 160.136719 " fill-opacity="1" fill-rule="nonzero"/><path fill="#000000" d="M 171.863281 161.347656 C 171.863281 161.347656 181.226562 156.25 182.292969 177.171875 C 182.292969 177.171875 175.875 169.125 171.863281 161.347656 " fill-opacity="1" fill-rule="nonzero"/><path fill="#000000" d="M 172.183594 161.433594 C 172.183594 161.433594 171.792969 150.757812 153.296875 160.484375 C 153.296875 160.484375 163.46875 161.929688 172.183594 161.433594 " fill-opacity="1" fill-rule="nonzero"/><path fill="#000000" d="M 171.441406 161.464844 C 171.441406 161.464844 187.070312 148.925781 197.125 176.167969 C 197.125 176.167969 184.917969 158.371094 171.441406 161.464844 " fill-opacity="1" fill-rule="nonzero"/><path fill="#000000" d="M 172.683594 161.535156 C 172.785156 159.359375 172.660156 154.746094 169.613281 151 C 164.898438 145.207031 155.007812 143.726562 145.828125 148.414062 C 148.46875 148.109375 153.257812 147.929688 158.667969 149.949219 C 166.988281 153.050781 171.296875 159.3125 172.683594 161.535156 " fill-opacity="1" fill-rule="nonzero"/><path fill="#000000" d="M 171.730469 161.535156 C 171.96875 160.996094 175.023438 154.378906 182.171875 153.144531 C 187.847656 152.164062 193.726562 154.988281 196.835938 160.261719 C 194.957031 159.710938 192.140625 158.929688 188.660156 158.136719 C 185.914062 157.511719 184.542969 157.199219 183.359375 157.121094 C 181.246094 156.976562 177.121094 157.261719 171.730469 161.535156 " fill-opacity="1" fill-rule="nonzero"/><g clip-path="url(#b71deb506c)"><path fill="#000000" d="M 171.996094 161.210938 C 174.921875 156.617188 174.992188 150.75 172.179688 146.144531 C 169.480469 141.730469 164.542969 139.144531 159.347656 139.421875 C 161.292969 140.289062 164.71875 142.140625 167.578125 145.824219 C 172.507812 152.179688 172.152344 159.320312 171.996094 161.210938 " fill-opacity="1" fill-rule="nonzero"/></g><g clip-path="url(#fc6fba0dfa)"><path fill="#000000" d="M 135.9375 223.832031 C 144.910156 219.484375 152.769531 217.203125 158.371094 215.929688 C 170.878906 213.085938 180.90625 213.273438 189.941406 213.441406 C 198.351562 213.597656 203.535156 213.695312 210.277344 215.132812 C 222.550781 217.75 232.078125 223.132812 238.699219 227.875 C 223.035156 236.847656 212.308594 236.695312 205.28125 234.726562 C 196.203125 232.179688 194.128906 226.828125 183.285156 225.183594 C 174.230469 223.808594 170.902344 226.820312 159.335938 227.140625 C 149.628906 227.410156 141.554688 225.582031 135.9375 223.832031 " fill-opacity="1" fill-rule="nonzero"/></g><path fill="#000000" d="M 184.160156 193.046875 C 182.730469 188.808594 179.101562 185.457031 174.398438 184.621094 C 172.167969 184.222656 169.96875 184.445312 167.972656 185.15625 L 177.96875 195.753906 C 178.167969 195.328125 178.78125 194.15625 180.152344 193.410156 C 181.996094 192.402344 183.816406 192.9375 184.160156 193.046875 " fill-opacity="1" fill-rule="nonzero"/><path fill="#000000" d="M 159.765625 194.875 C 159.246094 197.816406 159.785156 200.695312 161.105469 203.128906 C 161.222656 202.785156 161.816406 201.195312 163.53125 200.328125 C 165.542969 199.316406 167.460938 200.113281 167.726562 200.230469 C 167.160156 195.503906 166.589844 190.773438 166.019531 186.046875 C 162.839844 187.839844 160.453125 190.992188 159.765625 194.875 " fill-opacity="1" fill-rule="nonzero"/><path fill="#000000" d="M 166.933594 185.582031 L 168.648438 199.828125 C 169.113281 199.15625 170.109375 197.910156 171.828125 197.027344 C 174.101562 195.859375 176.230469 196.050781 177.03125 196.164062 C 173.691406 192.625 170.351562 189.082031 167.015625 185.542969 C 166.988281 185.554688 166.960938 185.570312 166.933594 185.582031 " fill-opacity="1" fill-rule="nonzero"/><path fill="#000000" d="M 178.257812 214.234375 L 170.621094 194.722656 L 171.738281 194.28125 L 179.378906 213.792969 L 178.257812 214.234375 " fill-opacity="1" fill-rule="nonzero"/><path fill="#000000" d="M 211.054688 212.5 L 205.269531 209.804688 L 182.074219 208.664062 L 177.078125 198.878906 L 178.925781 197.929688 L 183.375 206.644531 L 205.773438 207.746094 L 211.929688 210.613281 L 211.054688 212.5 " fill-opacity="1" fill-rule="nonzero"/><path fill="#000000" d="M 204.019531 212.816406 L 184.335938 211.78125 L 184.445312 209.699219 L 204.128906 210.738281 L 204.019531 212.816406 " fill-opacity="1" fill-rule="nonzero"/><path fill="#000000" d="M 204.59375 215.089844 L 201.46875 209.105469 L 203.304688 208.140625 L 206.433594 214.121094 L 204.59375 215.089844 " fill-opacity="1" fill-rule="nonzero"/><path fill="#000000" d="M 183.308594 214.097656 L 181.445312 213.1875 L 184.296875 207.320312 L 186.160156 208.234375 L 183.308594 214.097656 " fill-opacity="1" fill-rule="nonzero"/></svg>